<?xml version="1.0" encoding="utf-8"?>
<!-- Generator: Adobe Illustrator 28.0.0, SVG Export Plug-In . SVG Version: 6.00 Build 0)  -->
<svg width="100" height="100" version="1.1" id="Ebene_1" xmlns="http://www.w3.org/2000/svg" xmlns:xlink="http://www.w3.org/1999/xlink" x="0px" y="0px"
	 viewBox="0 0 50 50" style="enable-background:new 0 0 50 50;" xml:space="preserve">
<g>
	<path d="M41.8,28.9c1.4,3.3,4.9,5,8.2,5.2c-2.9-0.8-5.7-2.9-6.2-5.9c-0.3-1.7-0.2-3.5-1.2-5.1c-4.5-6.6-12.8,0.3-14.2-8.5
		c0.4-1.2,0.5-2.5,0.2-3.8c-0.3-1.4-1.1-3-2.2-4.5c-1-2-2.8-3.8-5.2-5C16.1-1.3,10.1,0.1,7.9,4.4c-2.2,4.3,0.3,9.9,5.4,12.5
		c0,0,0.1,0,0.1,0c0.1,0.1,0.2,0.3,0.3,0.4c0.4,1.6,0.4,3.2-0.1,4.6c-0.5,1.9-2.9,3.2-4.3,4.9C3.8,33.3,5,44.6,13.5,47.7
		c-1.4-0.9-2.6-2.1-3.5-3.5c-2.9-4.5-1.3-10.9,2.6-14c1.3-0.9,2.8-1.4,4.2-2.6c-0.2,0.8-0.4,1.6-0.6,2.3c-1.2,2.9-3.6,6.8-3.3,10.4
		c0,3.8,1.9,7.1,3.5,10.2c2.3,4.1-0.6,5.2-4.2,5.1c2.6,0.8,6.5,0.5,6.6-3c-0.2-4.1-2.6-7.9-1.7-12c0.5-2.6,2-4.1,3.6-6.2
		c1.1,6.1-2.7,10.9,2.4,15.7c2.2,1.9,4.8,2.9,7.4,3.6c-3.3-1.7-7-4.1-7.4-7.9c-0.1-2.4,1.3-4.7,1.9-7.3c0.6-2.7,1-5.4,1-8.1
		c0.8,0.3,1.5,0.7,1.9,1.1c0.5,0.7,0.3,1.1,0,2c-2.7,5.8,1.7,8.9,6.8,10.8c-1,2-2.4,3.8-4.1,5.3c2.1-1.2,4-2.8,5.6-4.8
		c2,0.6,4,1.1,5.5,1.5c-1.6-0.8-3.2-1.6-4.8-2.5c1.2-1.9,2.1-4,2.3-6.2c0.3-3.9-0.2-7.8-3.3-10.8c-0.9-1-2.4-1.7-3.7-2.2
		c1.5,0,3-0.2,4.7-0.6C40.5,23.8,40.8,26.3,41.8,28.9z M23.3,13.7c-0.9,0.2-1.8-0.4-2-1.3c-0.2-0.9,0.4-1.8,1.3-2
		c0.9-0.2,1.8,0.4,2,1.3C24.8,12.6,24.3,13.5,23.3,13.7z M19.9,12.7c0.2,0.9-0.4,1.8-1.3,2s-1.8-0.4-2-1.3c-0.2-0.9,0.4-1.8,1.3-2
		C18.8,11.2,19.7,11.8,19.9,12.7z M35,33.8c1.5,3,1.5,6.3,0.4,9.3c-1.1-0.8-2.2-1.6-3.2-2.6c-0.8-0.8-1.4-1.8-1.4-2.5
		c0-0.9,0.5-1.3,1.1-2.3c0.9-1.4,1.3-2.8,1.3-4.2C33.9,32,34.5,32.7,35,33.8z"/>
</g>
</svg>
