<svg width="50" height="50" xmlns="http://www.w3.org/2000/svg" xml:space="preserve" version="1.1">

 <g>
  <title>Layer 1</title>
  <g id="svg_1">
   <path fill="#ffffff" id="svg_2" d="m41.8,28.9c1.4,3.3 4.9,5 8.2,5.2c-2.9,-0.8 -5.7,-2.9 -6.2,-5.9c-0.3,-1.7 -0.2,-3.5 -1.2,-5.1c-4.5,-6.6 -12.8,0.3 -14.2,-8.5c0.4,-1.2 0.5,-2.5 0.2,-3.8c-0.3,-1.4 -1.1,-3 -2.2,-4.5c-1,-2 -2.8,-3.8 -5.2,-5c-5.1,-2.6 -11.1,-1.2 -13.3,3.1c-2.2,4.3 0.3,9.9 5.4,12.5c0,0 0.1,0 0.1,0c0.1,0.1 0.2,0.3 0.3,0.4c0.4,1.6 0.4,3.2 -0.1,4.6c-0.5,1.9 -2.9,3.2 -4.3,4.9c-5.5,6.5 -4.3,17.8 4.2,20.9c-1.4,-0.9 -2.6,-2.1 -3.5,-3.5c-2.9,-4.5 -1.3,-10.9 2.6,-14c1.3,-0.9 2.8,-1.4 4.2,-2.6c-0.2,0.8 -0.4,1.6 -0.6,2.3c-1.2,2.9 -3.6,6.8 -3.3,10.4c0,3.8 1.9,7.1 3.5,10.2c2.3,4.1 -0.6,5.2 -4.2,5.1c2.6,0.8 6.5,0.5 6.6,-3c-0.2,-4.1 -2.6,-7.9 -1.7,-12c0.5,-2.6 2,-4.1 3.6,-6.2c1.1,6.1 -2.7,10.9 2.4,15.7c2.2,1.9 4.8,2.9 7.4,3.6c-3.3,-1.7 -7,-4.1 -7.4,-7.9c-0.1,-2.4 1.3,-4.7 1.9,-7.3c0.6,-2.7 1,-5.4 1,-8.1c0.8,0.3 1.5,0.7 1.9,1.1c0.5,0.7 0.3,1.1 0,2c-2.7,5.8 1.7,8.9 6.8,10.8c-1,2 -2.4,3.8 -4.1,5.3c2.1,-1.2 4,-2.8 5.6,-4.8c2,0.6 4,1.1 5.5,1.5c-1.6,-0.8 -3.2,-1.6 -4.8,-2.5c1.2,-1.9 2.1,-4 2.3,-6.2c0.3,-3.9 -0.2,-7.8 -3.3,-10.8c-0.9,-1 -2.4,-1.7 -3.7,-2.2c1.5,0 3,-0.2 4.7,-0.6c3.6,-0.2 3.9,2.3 4.9,4.9zm-18.5,-15.2c-0.9,0.2 -1.8,-0.4 -2,-1.3c-0.2,-0.9 0.4,-1.8 1.3,-2c0.9,-0.2 1.8,0.4 2,1.3c0.2,0.9 -0.3,1.8 -1.3,2zm-3.4,-1c0.2,0.9 -0.4,1.8 -1.3,2s-1.8,-0.4 -2,-1.3c-0.2,-0.9 0.4,-1.8 1.3,-2c0.9,-0.2 1.8,0.4 2,1.3zm15.1,21.1c1.5,3 1.5,6.3 0.4,9.3c-1.1,-0.8 -2.2,-1.6 -3.2,-2.6c-0.8,-0.8 -1.4,-1.8 -1.4,-2.5c0,-0.9 0.5,-1.3 1.1,-2.3c0.9,-1.4 1.3,-2.8 1.3,-4.2c0.7,0.5 1.3,1.2 1.8,2.3z"/>
  </g>
 </g>
</svg>